<svg version="1.1" id="Layer_1" xmlns="http://www.w3.org/2000/svg" xmlns:xlink="http://www.w3.org/1999/xlink" x="0px" y="0px"
	 width="100%" viewBox="0 0 608 1024" enable-background="new 0 0 608 1024" xml:space="preserve">
<path fill="#000000" opacity="1.000000" stroke="none" 
	d="
M332.977051,487.007538 
	C326.255035,475.441345 311.731873,468.918091 298.468048,470.626984 
	C284.389038,472.440948 270.758850,476.245758 256.894562,478.989380 
	C248.364990,480.677338 239.756912,481.518585 231.067062,481.271362 
	C212.429825,480.741211 199.394547,469.696381 194.675369,450.702759 
	C190.999390,435.907776 193.022995,421.235046 195.648712,406.631256 
	C199.403732,385.746582 204.910538,365.343506 214.794464,346.419525 
	C221.170883,334.211090 229.425537,323.358154 240.174911,314.583832 
	C242.361313,312.799194 244.686356,311.139526 247.113022,309.701630 
	C259.948944,302.095947 270.130920,305.066437 276.712372,318.458038 
	C280.275818,325.708771 282.167511,333.469330 282.297943,341.568634 
	C282.927338,380.652771 271.964539,416.779327 254.166504,451.135193 
	C253.122543,453.150360 252.178909,455.371613 249.366531,456.487976 
	C248.204514,452.673920 249.726883,449.322632 250.732803,446.050720 
	C255.281891,431.253906 260.931244,416.804565 264.726379,401.767456 
	C269.005341,384.813507 273.049683,367.814850 272.650787,350.153717 
	C272.471710,342.224304 270.669830,334.657471 266.740417,327.692566 
	C259.950806,315.657898 246.797028,313.703003 237.056366,323.534119 
	C230.063400,330.592072 225.081573,339.152710 221.001160,348.117401 
	C211.719482,368.509399 204.932449,389.722595 201.699814,411.943695 
	C199.788956,425.078888 199.185043,438.107910 206.221252,450.330200 
	C213.426147,462.845520 224.095139,469.283386 238.429214,469.669250 
	C256.258392,470.149200 273.415833,465.812653 290.690582,462.269440 
	C298.665497,460.633728 306.715637,459.355042 314.747589,458.009308 
	C329.660828,455.510590 339.964661,462.836914 348.374725,474.010651 
	C349.744598,475.830688 350.793640,477.892212 352.474030,480.628754 
	C363.705719,460.868195 376.514130,442.919098 387.712646,424.529602 
	C386.625275,422.115234 384.977356,421.996704 383.618958,421.508240 
	C377.793152,419.413452 376.999237,419.832153 376.319672,425.849426 
	C375.043304,437.151001 372.539337,447.714081 363.212341,455.621521 
	C355.781128,461.921692 350.684570,462.118286 344.705017,454.432434 
	C336.320374,443.655182 331.620331,431.663147 334.682617,417.679321 
	C335.176941,415.421967 335.697754,413.077850 339.160980,411.973297 
	C343.775970,425.027740 348.942108,437.900604 360.639282,446.969879 
	C363.393433,443.682556 363.351746,440.289764 363.610291,437.075348 
	C364.010803,432.095428 364.100159,427.091309 364.383667,422.100983 
	C365.118439,409.167145 375.878204,401.913391 388.016724,406.148376 
	C389.746643,406.751953 391.499817,407.309570 393.177399,408.037872 
	C396.345245,409.413177 398.487152,408.360016 400.397552,405.645721 
	C405.383850,398.561188 410.306702,391.410706 415.701691,384.642670 
	C419.253784,380.186584 419.033539,375.528687 418.253204,370.497589 
	C416.215881,357.362610 413.545258,344.270874 416.317139,330.873779 
	C418.514374,320.254059 425.208679,312.391541 432.061951,304.633270 
	C446.611542,288.162567 464.033020,274.988770 481.507233,261.889557 
	C482.129852,261.422882 482.944611,261.212616 484.342438,260.576965 
	C483.941071,263.829865 481.716644,264.790558 480.055603,266.106354 
	C465.831970,277.373718 451.653931,288.580963 438.619659,301.370300 
	C423.838043,315.874115 421.331055,332.462769 425.765839,351.305878 
	C426.770325,355.573883 426.790039,360.170227 429.407867,364.738708 
	C455.323456,332.101044 480.220825,299.433990 507.449768,267.815521 
	C508.822357,271.139099 506.916107,271.978241 505.957550,273.121399 
	C480.797211,303.128479 456.640472,333.930176 432.958038,365.109772 
	C430.567474,368.257111 429.046417,371.245087 430.102448,375.598816 
	C431.309387,380.574921 431.415192,385.816223 431.207611,391.008057 
	C430.648712,404.987488 423.137543,414.610321 411.896423,421.821899 
	C407.506378,424.638336 402.476807,425.088196 397.416931,424.393677 
	C393.643158,423.875732 391.259491,425.169281 389.189941,428.434204 
	C377.862366,446.304596 366.411316,464.095490 355.894714,482.464966 
	C355.068207,483.908661 354.222473,485.243225 354.742371,487.118500 
	C359.507050,504.304626 356.049622,520.817444 350.046692,536.925659 
	C337.374603,570.929993 316.756195,599.761414 291.377960,625.362549 
	C288.913849,627.848328 287.772583,630.293579 288.281647,633.757690 
	C289.466400,641.819519 290.419678,649.915161 291.575165,657.981628 
	C291.953522,660.622803 294.031921,662.246094 295.806305,664.004333 
	C313.449677,681.487549 330.901855,699.152954 345.686676,719.207031 
	C349.239838,724.026489 352.592896,729.042358 355.539948,734.249756 
	C362.256409,746.117615 360.085449,756.956787 349.990051,764.268616 
	C346.235016,766.988281 342.429352,767.427734 338.295074,765.270081 
	C327.860321,759.824280 319.353821,752.458618 313.690369,741.898621 
	C303.251251,722.434082 294.481323,702.370117 290.415161,680.506897 
	C289.325531,674.648254 286.884613,669.554565 282.913544,664.998657 
	C278.653503,660.111145 274.625580,654.966125 271.025238,649.580017 
	C268.941895,646.463318 267.252075,645.980896 264.250366,648.038147 
	C256.873138,653.094299 248.719925,656.563354 239.954300,658.141052 
	C222.086914,661.356873 206.908340,655.710266 197.504532,640.408020 
	C179.877289,611.724243 173.776199,581.042358 188.551147,549.098450 
	C198.169403,528.303528 214.742294,514.027466 235.420258,504.627533 
	C245.834702,499.893250 256.834045,503.638245 263.252197,513.541809 
	C271.212158,525.824524 274.037903,539.937195 277.296387,553.879944 
	C277.894226,556.437927 278.499908,558.994019 279.472015,563.122742 
	C282.626068,556.573364 285.233917,551.449768 287.590271,546.212952 
	C296.128998,527.236389 307.650146,510.145477 320.459076,493.856873 
	C323.485779,490.007965 327.402100,487.711090 332.758667,487.392273 
	C334.294373,490.852722 335.350006,494.014465 336.405640,497.176178 
	C337.071777,496.922882 337.737946,496.669556 338.404114,496.416260 
	C338.379761,492.597809 335.540161,489.855530 332.977051,487.007538 
M264.594025,561.836914 
	C264.323456,561.049866 264.034027,560.268677 263.785248,559.474792 
	C260.250366,548.195312 257.127808,536.737366 250.410172,526.771667 
	C242.415253,514.911011 231.682892,512.655457 219.401215,519.889771 
	C200.583359,530.974182 192.534012,548.704102 190.472214,569.178040 
	C188.409042,589.665649 194.370834,608.834167 204.675674,626.455017 
	C218.122757,649.449036 238.380157,655.967468 262.109467,645.610718 
	C265.642426,644.068726 267.595734,642.264465 266.027405,637.994019 
	C264.769745,634.569519 264.733429,630.847290 264.627625,627.155396 
	C264.323242,616.533325 266.520447,606.312073 269.285461,596.190735 
	C270.681488,591.080566 271.093597,586.108093 269.635651,580.953064 
	C267.915375,574.870361 266.421722,568.723572 264.594025,561.836914 
M306.034637,518.485901 
	C296.421387,533.588074 289.573273,549.996826 283.020477,566.575134 
	C281.086487,571.468079 280.986938,576.211060 281.675659,581.225647 
	C282.962646,590.596436 283.944244,600.011658 285.372742,609.359497 
	C286.108704,614.175537 285.765900,619.233948 287.859528,624.116455 
	C288.792480,623.645325 289.463013,623.472046 289.902893,623.055237 
	C291.592133,621.454590 293.293701,619.852600 294.837006,618.114624 
	C311.098907,599.801208 324.189453,579.419189 333.744385,556.888000 
	C339.940796,542.276489 344.479858,527.174805 343.092743,510.953949 
	C342.817413,507.734375 343.309052,504.264404 340.512817,501.568756 
	C339.613647,501.842896 338.818207,502.031616 338.062866,502.323975 
	C330.433746,505.277222 330.437927,505.281830 329.773987,496.911102 
	C329.630707,495.104889 329.827393,493.006622 327.536285,492.396912 
	C325.458588,491.843964 324.071991,493.260864 322.914337,494.711121 
	C316.993195,502.128693 311.401428,509.784729 306.034637,518.485901 
M316.614258,728.895447 
	C322.461334,738.498230 330.647125,745.116455 341.448151,748.551208 
	C329.916565,725.345093 314.028290,705.326477 298.050812,685.316406 
	C301.534943,700.813110 307.956085,714.943481 316.614258,728.895447 
M409.443512,397.902618 
	C406.894928,401.888550 403.199463,405.160431 401.681427,409.874939 
	C403.964935,411.919281 406.587006,412.378906 409.202972,412.585754 
	C416.154205,413.135406 418.649506,411.260406 419.602570,404.307281 
	C420.230865,399.723389 420.381073,395.063019 420.529022,390.430023 
	C420.581848,388.776123 420.893585,386.701233 418.134094,385.682068 
	C415.398254,389.533356 412.632660,393.426544 409.443512,397.902618 
M271.161102,614.697388 
	C270.941681,622.233398 270.110718,629.853760 274.149475,637.583984 
	C276.691467,635.363647 280.155518,634.454834 279.619812,630.736572 
	C278.304932,621.611023 276.845245,612.488403 273.698944,603.158875 
	C271.825836,606.916748 271.123871,610.250183 271.161102,614.697388 
M277.611664,638.276855 
	C274.731537,641.992676 277.187866,647.117065 283.673462,650.046021 
	C282.933289,646.223206 282.288330,642.716187 281.565674,639.225220 
	C281.123932,637.091125 280.019257,636.381958 277.611664,638.276855 
z"/>
<path fill="#000000" opacity="1.000000" stroke="none" 
	d="
M377.075989,252.077606 
	C381.167908,248.128983 384.930878,244.345062 389.761566,241.871735 
	C396.155487,238.598007 401.202240,239.676025 405.440155,245.533997 
	C411.508057,253.921494 411.752502,263.485260 410.876465,273.287598 
	C409.982544,283.290588 406.788544,292.812683 404.970795,302.618317 
	C403.821533,308.817749 402.358307,314.957428 402.277069,321.339203 
	C402.203949,327.079834 394.080841,335.749451 387.135834,337.481262 
	C385.440277,332.625702 386.539062,327.708344 387.198822,322.958160 
	C388.889801,310.784058 393.310486,299.113861 393.950592,286.715576 
	C394.175354,282.362610 394.039581,278.041565 393.517670,273.750336 
	C393.005249,269.537354 391.267242,265.727173 388.380371,262.570312 
	C383.218140,256.925262 380.722290,257.134186 376.613037,263.361450 
	C375.053497,265.724792 373.409027,268.031891 371.837830,270.387665 
	C369.637787,273.686340 366.766907,273.336151 364.033356,271.483551 
	C361.095734,269.492706 362.697845,267.134216 364.112488,264.996765 
	C367.481293,259.906677 372.788300,256.753876 377.075989,252.077606 
z"/>
</svg>